<svg xmlns="http://www.w3.org/2000/svg" version="1.1" xmlns:xlink="http://www.w3.org/1999/xlink" xmlns:svgjs="http://svgjs.dev/svgjs" width="1000" height="156" viewBox="0 0 1000 156"><g transform="matrix(1,0,0,1,-0.6060606060606233,-0.06875139113975592)"><svg viewBox="0 0 396 62" data-background-color="#ffffff" preserveAspectRatio="xMidYMid meet" height="156" width="1000" xmlns="http://www.w3.org/2000/svg" xmlns:xlink="http://www.w3.org/1999/xlink"><g id="tight-bounds" transform="matrix(1,0,0,1,0.2400000000000091,0.027324270837596032)"><svg viewBox="0 0 395.52 61.9453514583248" height="61.9453514583248" width="395.52"><g><svg viewBox="0 0 484.33266592344654 75.85496868268434" height="61.9453514583248" width="395.52"><g transform="matrix(1,0,0,1,0,10.483573819386912)"><svg viewBox="0 0 395.52 54.88782104391052" height="54.88782104391052" width="395.52"><g id="textblocktransform"><svg viewBox="0 0 395.52 54.88782104391052" height="54.88782104391052" width="395.52" id="textblock"><g><svg viewBox="0 0 395.52 54.88782104391052" height="54.88782104391052" width="395.52"><g transform="matrix(1,0,0,1,0,0)"><svg width="395.52" viewBox="2.49 -32.28 235.70999999999998 32.72" height="54.88782104391052" data-palette-color="#868686"><path d="M12.21 0L2.59 0 2.49-1.66 5.47-2.34Q5.52-2.59 5.54-3.42 5.57-4.25 5.59-5.74 5.62-7.23 5.62-9.42L5.62-9.42 5.62-19.19Q5.62-21.44 5.59-22.95 5.57-24.46 5.54-25.29 5.52-26.12 5.47-26.32L5.47-26.32 2.49-27 2.59-28.66 12.21-28.66 12.3-27 9.33-26.32Q9.28-26.17 9.2-25.44 9.13-24.71 9.11-23.22 9.08-21.73 9.08-19.19L9.08-19.19 9.08-9.42Q9.08-6.98 9.11-5.47 9.13-3.96 9.2-3.25 9.28-2.54 9.33-2.34L9.33-2.34 12.3-1.66 12.21 0ZM25.68 0L16.4 0 16.31-1.61 19.33-2.29Q19.38-2.73 19.41-3.3 19.43-3.86 19.46-4.88 19.48-5.91 19.48-7.62L19.48-7.62 19.53-11.47Q19.53-13.09 19.43-14.82 19.33-16.55 19.19-17.33L19.19-17.33 16.06-18.02 16.06-19.48 22.02-21.14 22.7-20.41 22.46-17.92 22.6-17.87Q24.41-19.73 26.02-20.48 27.63-21.24 29.54-21.24L29.54-21.24Q31.25-21.24 32.81-20.39 34.37-19.53 35.4-17.7 36.42-15.87 36.42-12.99L36.42-12.99 36.42-7.47Q36.42-5.66 36.52-4.25 36.62-2.83 36.72-2.29L36.72-2.29 39.74-1.61 39.65 0 30.52 0 30.42-1.61 33.25-2.29Q33.3-2.69 33.32-3.22 33.35-3.76 33.37-4.66 33.4-5.57 33.4-7.03L33.4-7.03 33.4-12.65Q33.4-14.94 32.59-16.26 31.78-17.58 30.59-18.14 29.39-18.7 28.27-18.7L28.27-18.7Q26.56-18.7 25.1-17.85 23.63-16.99 22.56-15.48L22.56-15.48 22.56-8.06Q22.56-5.62 22.63-4.27 22.7-2.93 22.75-2.29L22.75-2.29 25.78-1.61 25.68 0ZM52.34 0L42.57 0 42.48-1.66 45.75-2.29Q45.8-2.49 45.82-2.93 45.84-3.37 45.87-4.47 45.89-5.57 45.89-7.62L45.89-7.62 45.94-10.69Q45.94-12.94 45.84-14.75 45.75-16.55 45.6-17.33L45.6-17.33 42.33-18.02 42.33-19.48 48.68-21.14 49.21-20.56Q49.12-19.04 49.04-17.6 48.97-16.16 48.97-14.21L48.97-14.21 48.97-8.06Q48.97-5.66 49.04-4.17 49.12-2.69 49.16-2.29L49.16-2.29 52.44-1.66 52.34 0ZM47.46-27.1L47.46-27.1Q46.38-27.1 45.55-27.83 44.72-28.56 44.72-29.69L44.72-29.69Q44.72-30.76 45.55-31.52 46.38-32.28 47.46-32.28L47.46-32.28Q48.53-32.28 49.31-31.52 50.09-30.76 50.09-29.69L50.09-29.69Q50.09-28.56 49.31-27.83 48.53-27.1 47.46-27.1ZM69.38-3.91L70.21-2.73Q69.23-1.22 67.72-0.44 66.2 0.34 64.59 0.34L64.59 0.34Q61.76 0.34 59.93-1.42 58.1-3.17 58.1-6.64L58.1-6.64 58.2-18.55 54.78-18.55 54.78-19.43 60.54-24.95 61.27-24.95 61.17-19.68 61.13-7.52Q61.13-4.88 62.25-3.54 63.37-2.2 65.47-2.2L65.47-2.2Q66.64-2.2 67.64-2.69 68.64-3.17 69.38-3.91L69.38-3.91ZM68.69-18.55L59.76-18.55 59.76-20.8 68.69-20.8 68.69-18.55ZM87.78 0.44L87.78 0.44Q83.73 0.44 80.26-1.17 76.8-2.78 74.67-6.05 72.55-9.33 72.55-14.21L72.55-14.21Q72.55-17.14 73.57-19.82 74.6-22.51 76.6-24.58 78.6-26.66 81.56-27.88 84.51-29.1 88.37-29.1L88.37-29.1Q90.27-29.1 92.52-28.71 94.77-28.32 96.57-27.59L96.57-27.59 96.91-21.14 94.91-20.95 93.54-25.44Q92.62-26.17 90.98-26.49 89.35-26.81 87.93-26.81L87.93-26.81Q84.02-26.81 81.58-25.15 79.14-23.49 78.04-20.78 76.94-18.07 76.94-14.94L76.94-14.94Q76.94-10.69 78.43-7.79 79.92-4.88 82.46-3.39 85-1.9 88.12-1.9L88.12-1.9Q89.74-1.9 90.98-2.25 92.23-2.59 93.5-3.22L93.5-3.22 95.79-7.86 97.7-7.67 96.38-1.61Q94.62-0.78 92.45-0.17 90.27 0.44 87.78 0.44ZM111.51 0L100.96 0 100.87-1.61 103.89-2.29Q103.94-2.59 103.97-3.2 103.99-3.81 104.02-4.91 104.04-6.01 104.04-7.62L104.04-7.62 104.04-11.47Q104.04-13.18 103.94-14.87 103.84-16.55 103.7-17.33L103.7-17.33 100.57-18.02 100.57-19.48 106.53-21.14 107.12-20.51 106.87-16.36 107.02-16.31Q108.53-19.19 110.05-20.19 111.56-21.19 112.83-21.19L112.83-21.19Q113.9-21.19 114.61-20.65 115.32-20.12 115.32-19.14L115.32-19.14Q115.32-18.12 114.59-17.58 113.85-17.04 112.68-17.04L112.68-17.04Q111.85-17.04 111.1-17.43 110.34-17.82 109.75-18.41L109.75-18.41 110.44-18.07Q109.51-17.43 108.63-16.31 107.75-15.19 107.02-13.53L107.02-13.53 107.07-8.79Q107.12-7.71 107.17-6.45 107.21-5.18 107.26-4.05 107.31-2.93 107.36-2.29L107.36-2.29 111.61-1.71 111.51 0ZM127.23 0.39L127.23 0.39Q124.55 0.39 122.3-0.83 120.05-2.05 118.74-4.39 117.42-6.74 117.42-10.01L117.42-10.01Q117.42-13.53 118.78-16.04 120.15-18.55 122.4-19.92 124.64-21.29 127.18-21.24L127.18-21.24Q130.84-21.19 132.94-18.8 135.04-16.41 135.04-11.72L135.04-11.72 135.04-10.94 119.86-10.94 119.86-12.94 132.31-12.94 131.82-12.45 131.82-13.33Q131.82-16.26 130.5-17.85 129.18-19.43 126.79-19.43L126.79-19.43Q125.38-19.43 124.03-18.58 122.69-17.72 121.84-16.02 120.98-14.31 120.98-11.72L120.98-11.72 120.98-11.23Q120.98-7.08 123.01-4.79 125.03-2.49 128.16-2.49L128.16-2.49Q129.97-2.49 131.31-3.17 132.65-3.86 133.92-5.42L133.92-5.42 135.09-4.39Q133.73-1.95 131.72-0.78 129.72 0.39 127.23 0.39ZM146.71 0.39L146.71 0.39Q144.86 0.39 143.37-0.34 141.88-1.07 141-2.25 140.12-3.42 140.12-4.74L140.12-4.74Q140.12-6.35 141.19-7.4 142.27-8.45 144.76-9.28L144.76-9.28 152.13-11.82 152.13-14.5Q152.13-15.82 151.37-16.85 150.62-17.87 149.35-18.46 148.08-19.04 146.47-19.04L146.47-19.04Q145.15-19.04 144.68-18.51 144.22-17.97 144.12-16.31L144.12-16.31 144.03-14.55Q142.46-14.11 141.36-14.62 140.27-15.14 140.27-16.21L140.27-16.21Q140.27-16.94 140.92-17.77 141.58-18.6 142.66-19.31 143.73-20.02 145.03-20.53 146.32-21.04 147.69-21.24L147.69-21.24Q151.06-21.24 153.16-19.38 155.26-17.53 155.3-14.5L155.3-14.5 155.21-5.91Q155.21-5.13 155.28-4.17 155.35-3.22 155.5-2.83L155.5-2.83 158.58-2.25 158.58-0.93 156.38-0.15Q155.74 0.1 155.23 0.24 154.72 0.39 154.38 0.39L154.38 0.39Q152.96 0.39 152.62-1.22L152.62-1.22 152.18-3.03 152.86-3.13Q151.2-1.32 149.71-0.46 148.22 0.39 146.71 0.39ZM147.64-2.05L147.64-2.05Q148.96-2.05 150.06-2.64 151.15-3.22 152.13-4.44L152.13-4.44 152.13-9.72 146.03-7.96Q144.86-7.67 144.34-7.01 143.83-6.35 143.83-5.32L143.83-5.32Q143.83-4.1 145-3.08 146.17-2.05 147.64-2.05ZM175.47-3.91L176.3-2.73Q175.32-1.22 173.81-0.44 172.29 0.34 170.68 0.34L170.68 0.34Q167.85 0.34 166.02-1.42 164.19-3.17 164.19-6.64L164.19-6.64 164.29-18.55 160.87-18.55 160.87-19.43 166.63-24.95 167.36-24.95 167.27-19.68 167.22-7.52Q167.22-4.88 168.34-3.54 169.46-2.2 171.56-2.2L171.56-2.2Q172.73-2.2 173.73-2.69 174.74-3.17 175.47-3.91L175.47-3.91ZM174.78-18.55L165.85-18.55 165.85-20.8 174.78-20.8 174.78-18.55ZM187.28 0L177.52 0 177.42-1.66 180.69-2.29Q180.74-2.49 180.76-2.93 180.79-3.37 180.81-4.47 180.84-5.57 180.84-7.62L180.84-7.62 180.89-10.69Q180.89-12.94 180.79-14.75 180.69-16.55 180.54-17.33L180.54-17.33 177.27-18.02 177.27-19.48 183.62-21.14 184.16-20.56Q184.06-19.04 183.99-17.6 183.91-16.16 183.91-14.21L183.91-14.21 183.91-8.06Q183.91-5.66 183.99-4.17 184.06-2.69 184.11-2.29L184.11-2.29 187.38-1.66 187.28 0ZM182.4-27.1L182.4-27.1Q181.33-27.1 180.5-27.83 179.67-28.56 179.67-29.69L179.67-29.69Q179.67-30.76 180.5-31.52 181.33-32.28 182.4-32.28L182.4-32.28Q183.47-32.28 184.25-31.52 185.04-30.76 185.04-29.69L185.04-29.69Q185.04-28.56 184.25-27.83 183.47-27.1 182.4-27.1ZM201.1 0.39L201.1 0.39Q197.97 0.39 195.65-0.98 193.33-2.34 192.06-4.81 190.8-7.28 190.8-10.45L190.8-10.45Q190.8-13.67 192.19-16.09 193.58-18.51 195.97-19.87 198.36-21.24 201.24-21.24L201.24-21.24Q204.22-21.24 206.42-19.92 208.62-18.6 209.84-16.19 211.06-13.77 211.06-10.55L211.06-10.55Q211.06-7.52 209.74-5.03 208.42-2.54 206.15-1.07 203.88 0.39 201.1 0.39ZM201.54-1.66L201.54-1.66Q203.34-1.66 204.66-2.73 205.98-3.81 206.74-5.64 207.49-7.47 207.49-9.86L207.49-9.86Q207.49-14.06 205.64-16.67 203.78-19.29 200.81-19.29L200.81-19.29Q197.97-19.29 196.22-17.02 194.46-14.75 194.46-10.99L194.46-10.99Q194.46-8.2 195.36-6.1 196.26-4 197.88-2.83 199.49-1.66 201.54-1.66ZM224.14 0L214.87 0 214.77-1.61 217.79-2.29Q217.84-2.73 217.87-3.3 217.89-3.86 217.92-4.88 217.94-5.91 217.94-7.62L217.94-7.62 217.99-11.47Q217.99-13.09 217.89-14.82 217.79-16.55 217.65-17.33L217.65-17.33 214.52-18.02 214.52-19.48 220.48-21.14 221.16-20.41 220.92-17.92 221.07-17.87Q222.87-19.73 224.48-20.48 226.1-21.24 228-21.24L228-21.24Q229.71-21.24 231.27-20.39 232.83-19.53 233.86-17.7 234.88-15.87 234.88-12.99L234.88-12.99 234.88-7.47Q234.88-5.66 234.98-4.25 235.08-2.83 235.18-2.29L235.18-2.29 238.2-1.61 238.11 0 228.98 0 228.88-1.61 231.71-2.29Q231.76-2.69 231.78-3.22 231.81-3.76 231.83-4.66 231.86-5.57 231.86-7.03L231.86-7.03 231.86-12.65Q231.86-14.94 231.05-16.26 230.25-17.58 229.05-18.14 227.85-18.7 226.73-18.7L226.73-18.7Q225.02-18.7 223.56-17.85 222.09-16.99 221.02-15.48L221.02-15.48 221.02-8.06Q221.02-5.62 221.09-4.27 221.16-2.93 221.21-2.29L221.21-2.29 224.24-1.61 224.14 0Z" opacity="1" transform="matrix(1,0,0,1,0,0)" fill="#868686" class="undefined-text-0" data-fill-palette-color="primary" id="text-0"></path></svg></g></svg></g></svg></g></svg></g><g transform="matrix(1,0,0,1,408.4776972407622,0)"><svg viewBox="0 0 75.85496868268434 75.85496868268434" height="75.85496868268434" width="75.85496868268434"><g data-palette-color="#30312e"><rect width="20.73369143993372" height="75.85496868268434" fill="#30312e" stroke="transparent" data-fill-palette-color="accent" x="0" fill-opacity="1"></rect><rect width="20.73369143993372" height="75.85496868268434" fill="#30312e" stroke="transparent" data-fill-palette-color="accent" x="25.284989560894783" fill-opacity="0.75"></rect><rect width="20.73369143993372" height="75.85496868268434" fill="#30312e" stroke="transparent" data-fill-palette-color="accent" x="50.569979121789565" fill-opacity="0.5"></rect></g></svg></g></svg></g><defs></defs></svg><rect width="395.52" height="61.9453514583248" fill="none" stroke="none" visibility="hidden"></rect></g></svg></g></svg>